<svg id="visual" viewBox="0 0 1080 900" width="1080" height="900" xmlns="http://www.w3.org/2000/svg" xmlns:xlink="http://www.w3.org/1999/xlink" version="1.1"><rect x="0" y="0" width="1080" height="900" fill="#ffffff"></rect><defs><linearGradient id="grad1_0" x1="16.7%" y1="0%" x2="100%" y2="100%"><stop offset="26%" stop-color="#000000" stop-opacity="1"></stop><stop offset="74%" stop-color="#000000" stop-opacity="1"></stop></linearGradient></defs><defs><linearGradient id="grad1_1" x1="16.7%" y1="0%" x2="100%" y2="100%"><stop offset="26%" stop-color="#000000" stop-opacity="1"></stop><stop offset="74%" stop-color="#303030" stop-opacity="1"></stop></linearGradient></defs><defs><linearGradient id="grad1_2" x1="16.7%" y1="0%" x2="100%" y2="100%"><stop offset="26%" stop-color="#5e5e5e" stop-opacity="1"></stop><stop offset="74%" stop-color="#303030" stop-opacity="1"></stop></linearGradient></defs><defs><linearGradient id="grad1_3" x1="16.7%" y1="0%" x2="100%" y2="100%"><stop offset="26%" stop-color="#5e5e5e" stop-opacity="1"></stop><stop offset="74%" stop-color="#919191" stop-opacity="1"></stop></linearGradient></defs><defs><linearGradient id="grad1_4" x1="16.7%" y1="0%" x2="100%" y2="100%"><stop offset="26%" stop-color="#c6c6c6" stop-opacity="1"></stop><stop offset="74%" stop-color="#919191" stop-opacity="1"></stop></linearGradient></defs><defs><linearGradient id="grad1_5" x1="16.7%" y1="0%" x2="100%" y2="100%"><stop offset="26%" stop-color="#c6c6c6" stop-opacity="1"></stop><stop offset="74%" stop-color="#ffffff" stop-opacity="1"></stop></linearGradient></defs><defs><linearGradient id="grad2_0" x1="0%" y1="0%" x2="83.3%" y2="100%"><stop offset="26%" stop-color="#000000" stop-opacity="1"></stop><stop offset="74%" stop-color="#000000" stop-opacity="1"></stop></linearGradient></defs><defs><linearGradient id="grad2_1" x1="0%" y1="0%" x2="83.3%" y2="100%"><stop offset="26%" stop-color="#303030" stop-opacity="1"></stop><stop offset="74%" stop-color="#000000" stop-opacity="1"></stop></linearGradient></defs><defs><linearGradient id="grad2_2" x1="0%" y1="0%" x2="83.3%" y2="100%"><stop offset="26%" stop-color="#303030" stop-opacity="1"></stop><stop offset="74%" stop-color="#5e5e5e" stop-opacity="1"></stop></linearGradient></defs><defs><linearGradient id="grad2_3" x1="0%" y1="0%" x2="83.3%" y2="100%"><stop offset="26%" stop-color="#919191" stop-opacity="1"></stop><stop offset="74%" stop-color="#5e5e5e" stop-opacity="1"></stop></linearGradient></defs><defs><linearGradient id="grad2_4" x1="0%" y1="0%" x2="83.3%" y2="100%"><stop offset="26%" stop-color="#919191" stop-opacity="1"></stop><stop offset="74%" stop-color="#c6c6c6" stop-opacity="1"></stop></linearGradient></defs><defs><linearGradient id="grad2_5" x1="0%" y1="0%" x2="83.3%" y2="100%"><stop offset="26%" stop-color="#ffffff" stop-opacity="1"></stop><stop offset="74%" stop-color="#c6c6c6" stop-opacity="1"></stop></linearGradient></defs><g transform="translate(1080, 0)"><path d="M0 246C-38.7 232.4 -77.3 218.9 -115.5 200.1C-153.7 181.2 -191.4 157.2 -213.1 123C-234.7 88.8 -240.4 44.4 -246 0L0 0Z" fill="#e2e2e2"></path><path d="M0 205C-32.2 193.7 -64.4 182.4 -96.2 166.7C-128.1 151 -159.5 131 -177.6 102.5C-195.6 74 -200.3 37 -205 0L0 0Z" fill="#ababab"></path><path d="M0 164C-25.8 155 -51.5 145.9 -77 133.4C-102.5 120.8 -127.6 104.8 -142 82C-156.5 59.2 -160.3 29.6 -164 0L0 0Z" fill="#777777"></path><path d="M0 123C-19.3 116.2 -38.7 109.4 -57.7 100C-76.8 90.6 -95.7 78.6 -106.5 61.5C-117.4 44.4 -120.2 22.2 -123 0L0 0Z" fill="#474747"></path><path d="M0 82C-12.9 77.5 -25.8 73 -38.5 66.7C-51.2 60.4 -63.8 52.4 -71 41C-78.2 29.6 -80.1 14.8 -82 0L0 0Z" fill="#1b1b1b"></path><path d="M0 41C-6.4 38.7 -12.9 36.5 -19.2 33.3C-25.6 30.2 -31.9 26.2 -35.5 20.5C-39.1 14.8 -40.1 7.4 -41 0L0 0Z" fill="#000000"></path></g><g transform="translate(0, 900)"><path d="M0 -246C21.1 -202 42.1 -157.9 82.5 -142.9C122.9 -127.9 182.6 -142 213.1 -123C243.5 -104 244.8 -52 246 0L0 0Z" fill="#e2e2e2"></path><path d="M0 -205C17.5 -168.3 35.1 -131.6 68.7 -119.1C102.4 -106.6 152.2 -118.3 177.6 -102.5C202.9 -86.7 204 -43.4 205 0L0 0Z" fill="#ababab"></path><path d="M0 -164C14 -134.6 28.1 -105.3 55 -95.3C81.9 -85.3 121.7 -94.7 142 -82C162.4 -69.4 163.2 -34.7 164 0L0 0Z" fill="#777777"></path><path d="M0 -123C10.5 -101 21.1 -78.9 41.2 -71.4C61.4 -64 91.3 -71 106.5 -61.5C121.8 -52 122.4 -26 123 0L0 0Z" fill="#474747"></path><path d="M0 -82C7 -67.3 14 -52.6 27.5 -47.6C41 -42.6 60.9 -47.3 71 -41C81.2 -34.7 81.6 -17.3 82 0L0 0Z" fill="#1b1b1b"></path><path d="M0 -41C3.5 -33.7 7 -26.3 13.7 -23.8C20.5 -21.3 30.4 -23.7 35.5 -20.5C40.6 -17.3 40.8 -8.7 41 0L0 0Z" fill="#000000"></path></g></svg>